<svg width="512" height="480" xmlns="http://www.w3.org/2000/svg" xml:space="preserve">
 <defs>
  <filter id="svg_1_blur">
   <feGaussianBlur in="SourceGraphic" stdDeviation="0.3"/>
  </filter>
 </defs>
 <g>
  <title>Layer 1</title>
  <path d="m0,-0.50003l0,481.00003l512.00002,0l0,-481.00003l-512.00002,0z" stroke="#000" stroke-width="0" stroke-dasharray="1 10" stroke-dashoffset="0" stroke-miterlimit="4" fill="#111" fill-rule="nonzero" id="svg_1" filter="url(#svg_1_blur)"/>
  <path d="m244.45618,326.62085l-62.55849,-75.13847l-21.87631,22.39357l45.67349,52.74026l38.76131,0l0,0.00462l0,0.00001zm-42.60305,-171.59314l-87.12205,84.89028l0,-84.89028l-31.47084,0l0,171.58852l31.47084,0l0,-40.45917l129.34191,-131.12934l-42.21986,0zm234.88664,171.95381l-49.51032,-65.03061c6.65181,-1.92817 12.53724,-4.217 17.65629,-6.8665c5.62997,-3.37082 10.23318,-7.10232 13.81455,-11.19448c4.0972,-4.57766 7.03992,-9.516 8.82814,-14.81499c2.30406,-5.77988 3.45364,-12.28109 3.45364,-19.50363c0,-8.42938 -1.53277,-16.01721 -4.60321,-22.75887a51.29855,48.28282 0 0 0 -13.43627,-16.97899c-5.62505,-4.57766 -12.7927,-8.18893 -21.49312,-10.83844c-8.95587,-2.6495 -18.42267,-3.97655 -28.4004,-3.97655l-81.36927,0l0,27.45675l78.68201,0c12.02632,0 21.36539,2.40905 28.0172,7.22716s9.97772,12.04065 9.97772,21.67225c0,8.91027 -3.32591,15.89698 -9.97772,20.95092c-6.65181,5.29899 -15.86806,7.95312 -27.63401,7.95312l-79.06521,0l0,86.69824l31.85403,0l0,-59.97206l40.3039,0l44.9022,59.97206l37.99984,0l0,0.00462l0.00001,-0.00001z" stroke-dashoffset="0" stroke-miterlimit="4" fill="#fff" fill-rule="nonzero" id="svg_2"/>
 </g>
</svg>